<svg xmlns="http://www.w3.org/2000/svg" viewBox="0 0 512 512" width="512" height="512">
  <defs>
    <linearGradient id="bg" x1="0" y1="0" x2="1" y2="1">
      <stop offset="0%" stop-color="#0f5c47"/>
      <stop offset="100%" stop-color="#08301f"/>
    </linearGradient>
    <linearGradient id="gold" x1="0" y1="0" x2="0" y2="1">
      <stop offset="0%" stop-color="#a7f3d0"/>
      <stop offset="100%" stop-color="#34d399"/>
    </linearGradient>
  </defs>

  <rect width="512" height="512" rx="112" fill="url(#bg)"/>

  <!-- Bulan sabit -->
  <path d="M312 128a128 128 0 1 0 0 256 148 148 0 1 1 0-256z" fill="url(#gold)" opacity="0.95"/>

  <!-- Bintang -->
  <path d="M360 168l10 26 28 3-21 19 6 27-23-14-23 14 6-27-21-19 28-3z" fill="url(#gold)"/>

  <!-- Menara masjid -->
  <g fill="#ffffff" opacity="0.9">
    <rect x="96" y="300" width="18" height="112" rx="6"/>
    <rect x="398" y="300" width="18" height="112" rx="6"/>
    <path d="M96 296h18l-9-26z"/>
    <path d="M398 296h18l-9-26z"/>
    <path d="M140 412v-84a56 56 0 0 1 112 0v84z"/>
    <path d="M196 328a28 28 0 0 1 56 0v0h-56z" opacity="0.35"/>
    <rect x="252" y="332" width="16" height="80" rx="5"/>
    <path d="M252 328h16l-8-22z"/>
  </g>

  <!-- Garis ufuk -->
  <rect x="80" y="412" width="352" height="8" rx="4" fill="url(#gold)" opacity="0.85"/>
</svg>
